<svg id="Capa_1" enable-background="new 0 0 512 512" height="512" viewBox="0 0 512 512" width="512" xmlns="http://www.w3.org/2000/svg"><g><g><g><g><path d="m266.995 357.825c-14.408 3.222-25.5 13.302-30.62 26.032-.771 1.918-.275 4.143 1.239 5.551 10.05 9.348 24.39 13.749 38.798 10.526 14.418-3.224 25.517-13.315 30.628-26.053.77-1.919.271-4.143-1.244-5.55-10.056-9.336-24.393-13.728-38.801-10.506z" fill="#8dc637"/><path d="m237.612 389.408c-1.515-1.406-2.008-3.629-1.237-5.554 1.539-3.814 3.6-7.384 6.139-10.601 9.526 6.568 21.661 9.3 33.856 6.571 10.093-2.265 18.57-7.894 24.486-15.444 1.741 1.196 3.389 2.514 4.942 3.954 1.515 1.406 2.008 3.629 1.243 5.547-5.108 12.74-16.214 22.83-30.632 26.053-14.402 3.221-28.751-1.178-38.797-10.526z" fill="#82b732"/></g></g><g><path d="m279.948 259.478s-21.88 113.468-39.804 159.76c-1.52 3.926-5.315 6.494-9.525 6.494h-102.522v-23.15c44.377-36.224 99.454-100.743 123.126-152.26z" fill="#c86f5c"/><path d="m279.953 259.478s-21.889 113.465-39.805 159.759c-1.52 3.926-5.315 6.495-9.525 6.495h-19.639c18.045-40.356 41.42-157.866 44.592-174.029z" fill="#ba5d4f"/><g><path d="m216.482 388.721c-7.457 15.979-13.698 28.408-18.598 37.011h-16.552c0-1.36.358-2.731 1.105-3.969 4.9-8.102 11.672-21.401 20.142-39.528 1.8-3.846 6.363-5.504 10.199-3.713 3.848 1.8 5.505 6.363 3.704 10.199z" fill="#ba5d4f"/></g></g><g><path d="m283.648 293.967c-.14 14.764-7.678 27.717-19.057 35.384-1.714 1.155-3.994 1.135-5.687-.052-11.242-7.875-18.542-20.977-18.403-35.741.14-14.773 7.687-27.736 19.076-35.396 1.716-1.154 3.995-1.131 5.687.056 11.232 7.884 18.524 20.986 18.384 35.749z" fill="#8dc637"/><path d="m283.646 293.966c-.133 14.767-7.67 27.718-19.053 35.383-1.714 1.156-3.999 1.136-5.693-.045-1.339-.931-2.619-1.954-3.829-3.039 6.537-7.471 10.534-17.228 10.627-27.937.121-13.001-5.527-24.725-14.558-32.714 2.475-2.839 5.312-5.345 8.434-7.451 1.714-1.156 3.999-1.136 5.69.059 11.236 7.877 18.521 20.985 18.382 35.744z" fill="#82b732"/></g><g><g><path d="m224.833 252.241c14.112-4.34 28.74-1.081 39.495 7.44 1.62 1.284 2.291 3.462 1.674 5.435-4.098 13.099-14.373 24.027-28.485 28.367-14.121 4.343-28.761 1.078-39.513-7.454-1.62-1.285-2.289-3.464-1.67-5.437 4.11-13.092 14.387-24.011 28.499-28.351z" fill="#a3e440"/><path d="m266.004 265.116c.619-1.972-.054-4.148-1.678-5.437-3.226-2.55-6.785-4.631-10.585-6.166-5.019 10.425-14.207 18.811-26.152 22.483-9.889 3.033-20.042 2.344-28.921-1.283-.92 1.902-1.698 3.863-2.334 5.884-.619 1.972.054 4.148 1.668 5.434 10.749 8.535 25.396 11.797 39.516 7.452 14.108-4.339 24.391-15.27 28.486-28.367z" fill="#99d53b"/></g></g><g><g><path d="m114.984 389.478c-4.34 14.112-1.081 28.74 7.44 39.495 1.284 1.62 3.462 2.291 5.435 1.674 13.099-4.098 24.027-14.373 28.367-28.485 4.343-14.121 1.078-28.761-7.454-39.513-1.285-1.62-3.464-2.289-5.437-1.67-13.092 4.11-24.011 14.387-28.351 28.499z" fill="#8dc637"/><path d="m127.859 430.648c-1.972.619-4.148-.054-5.437-1.678-2.55-3.226-4.631-6.785-6.166-10.585 10.425-5.019 18.811-14.207 22.483-26.152 3.033-9.889 2.344-20.042-1.283-28.921 1.902-.92 3.863-1.698 5.884-2.334 1.972-.619 4.148.054 5.434 1.668 8.535 10.749 11.797 25.396 7.452 39.516-4.339 14.109-15.269 24.392-28.367 28.486z" fill="#82b732"/></g></g><g><g><path d="m76.176 409.825c6.91 13.048 19.558 21.087 33.188 22.666 2.054.238 4.069-.828 5.027-2.66 6.365-12.161 6.826-27.153-.083-40.201-6.914-13.056-19.575-21.1-33.211-22.669-2.054-.236-4.068.831-5.025 2.664-6.352 12.165-6.806 27.153.104 40.2z" fill="#a3e440"/><path d="m114.391 429.834c-.956 1.832-2.971 2.895-5.031 2.658-4.084-.478-8.072-1.524-11.845-3.125 3.822-10.921 3.256-23.347-2.594-34.39-4.848-9.137-12.514-15.829-21.358-19.543.695-1.995 1.531-3.932 2.51-5.81.956-1.832 2.971-2.895 5.022-2.663 13.636 1.565 26.299 9.616 33.211 22.673 6.909 13.043 6.452 28.043.085 40.2z" fill="#99d53b"/></g></g><path d="m214.907 360.752c-4.238 0-7.672-3.435-7.672-7.672v-.105c0-4.237 3.435-7.672 7.672-7.672s7.672 3.435 7.672 7.672v.105c0 4.237-3.434 7.672-7.672 7.672z" fill="#a34f41"/></g><g><g><g><g><path d="m325.796 500.218c-11.527-12.715-19.822-33.827-12.734-68.686 1.04-5.115 8.165-5.583 9.858-.645 9.896 28.862 35.253 79.251 84.241 41.413l-29.077 29.077c-14.578 14.578-38.441 14.115-52.288-1.159z" fill="#213993"/></g><g><g><path d="m312.913 242.391c67.045 57.051 130.108 188.611 98.339 229.909l-33.667 29.575s53.295-86.728-79.501-235.845z" fill="#3351c5"/></g></g></g><g><g><path d="m355.357 485.863c-12.485-11.776-22.403-32.176-18.058-67.482.638-5.181 7.704-6.204 9.777-1.413 12.119 28.001 41.334 76.256 87.217 34.709l-26.718 31.259c-13.395 15.671-37.221 17.073-52.218 2.927z" fill="#0c6842"/></g><g><g><path d="m322.382 229.829c71.295 51.641 140.359 178.195 111.912 221.847l-27.176 31.794s46.361-90.624-97.674-228.918z" fill="#0f7a4f"/></g></g></g><g><g><g><path d="m136.766 53.702c-.85 0-1.714-.142-2.56-.442-.868-.307-21.246-7.832-21.246-34.707 0-4.237 3.435-7.672 7.672-7.672s7.672 3.435 7.672 7.672c0 16.152 10.912 20.203 11.022 20.242 3.995 1.414 6.086 5.799 4.672 9.793-1.114 3.148-4.073 5.114-7.232 5.114z" fill="#0f7a4f"/><path d="m136.754 53.694c-3.505 0-6.665-2.412-7.472-5.974-.263-1.162-6.28-28.648 7.492-44.992 2.73-3.24 7.571-3.654 10.811-.924s3.653 7.57.923 10.811c-7.336 8.706-5.559 25.86-4.256 31.735.917 4.13-1.682 8.231-5.811 9.156-.565.127-1.13.188-1.687.188z" fill="#0f7a4f"/><path d="m127.987 52.677c-5.215 0-12.31-.768-18.055-4.191-3.64-2.169-4.833-6.878-2.664-10.518 2.169-3.641 6.875-4.833 10.518-2.665 4.063 2.421 11.841 2.205 14.971 1.72 4.191-.653 8.106 2.223 8.754 6.411.647 4.187-2.223 8.107-6.411 8.754-.639.1-3.4.489-7.113.489z" fill="#158f5e"/></g><path d="m219.432 76.245c-4.935-2.02-7.831-7.163-6.855-12.405.797-4.28 1.221-9.306 1.221-15.211 0-28.457-17.796-39.749-39.749-39.749s-39.749 11.292-39.749 39.749c0 6.46 1.543 12.557 4.279 17.947 5.288 10.419 6.857 22.396 3.722 33.651-23.562 84.598 43.141 150.128 137.65 159.25 17.334 1.673 33.471-.33 47.79-5.365 4.784-13.589-48.916-153.552-108.309-177.867z" fill="#158f5e"/><path d="m203.656 236.797c21.75 12.017 47.75 19.925 76.294 22.68 17.334 1.673 33.471-.33 47.79-5.365 2.737-7.774-13.669-56.898-39.325-102.074z" fill="#5169cd"/><path d="m282.728 142.346c-18.212-29.997-40.325-56.7-63.294-66.103-4.941-2.015-7.836-7.161-6.854-12.399.798-4.286 1.217-9.309 1.217-15.212 0-28.459-17.8-39.753-39.753-39.753-6.281 0-12.214.921-17.493 2.916 17.022 3.161 29.564 14.946 29.564 38.842 0 5.903-.419 10.936-1.217 15.212-.982 5.248 1.913 10.383 6.854 12.409 22.454 9.193 44.09 34.916 62.063 64.088z" fill="#0f7a4f"/><path d="m141.491 103.301c.246-1.024.522-2.047.809-3.071 3.164-11.375 1.533-23.482-3.891-33.977.001-.002.001-.003.002-.004l19.452-6.182c1.333-.424 2.791-.012 3.688 1.061 4.879 5.828 17.12 25.354-20.06 42.173z" fill="#384848"/></g><g><path d="m134.72 41.936s-15.013 5.791-16.997 26.588c-.212 2.221 1.903 3.941 4.021 3.241l16.667-5.515 7.647-2.43c0-.001.269-14.784-11.338-21.884z" fill="#f8c52d"/></g><path d="m147.436 179.13s17.305-16.627 28.339-42.072c4.934-11.378 19.173-15.165 29.08-7.704 40.264 30.325 124.115 106.592 148.076 229.992 1.211 6.239-3.185 12.183-9.504 12.865-5.444.587-10.462-2.974-11.733-8.3-5.554-23.272-23.576-83.069-64.911-99.011-38.485-14.842-97.185-28.191-119.347-85.77z" fill="#e22334"/><path d="m343.429 372.21c-.399.041-.788.061-1.177.061-4.982 0-9.381-3.427-10.557-8.358-3.233-13.534-10.67-39.405-24.449-61.829-31.692-78.677-87.956-128.977-117.867-151.503-6.158-4.634-14.158-4.511-20.05-.675 2.271-3.969 4.46-8.266 6.445-12.849 4.941-11.375 19.171-15.161 29.083-7.703 40.264 30.321 124.118 106.594 148.076 229.996 1.206 6.231-3.182 12.185-9.504 12.86z" fill="#c21d2c"/></g></g><g><g><path d="m188.914 139.27c-2.812-11.491.118-23.76 8.103-32.488 8.79-9.608 23.672-18.125 47.504-11.827 51.859 13.705 70.796 85.403 50.641 138.063-1.316 3.438-4.766 5.587-8.422 5.16-19.068-2.231-77.498-15.848-97.826-98.908z" fill="#2db181"/><path d="m295.166 233.022c-1.323 3.437-4.764 5.588-8.423 5.16-4.376-.513-10.824-1.618-18.415-4.031 19.221-52.51.155-122.972-51.204-136.549-1.972-.519-3.883-.941-5.734-1.266 8.38-3.686 19.235-5.051 33.135-1.376 51.854 13.703 70.793 85.4 50.641 138.062z" fill="#1ca56f"/></g><g fill="#5169cd"><path d="m277.073 220.196c-4.194 6.322-9.503 9.984-14.086 12.092-5.729-2.169-11.918-5.064-18.25-8.972 4.552-1.504 15.805-5.79 19.723-11.867 4.828-7.488 8.235-23.232-3.008-55.701-1.381-4 .737-8.368 4.747-9.759 4-1.381 8.368.737 9.759 4.747 10.742 31.047 11.12 54.412 1.115 69.46z"/><path d="m244.021 205.127c-4.737 4.123-10.905 5.319-16.061 5.442-4.481-4.143-8.869-8.91-13.053-14.373 1.78-1.463 4.204-2.107 6.629-1.534 3.56.818 9.964 1.033 12.429-1.125 1.187-1.033 1.627-3.14 1.33-6.271-.542-5.575-1.493-10.905-2.424-16.061-2.68-14.946-5.217-29.073 3.601-43.364 2.22-3.601 6.956-4.726 10.557-2.496 3.601 2.22 4.726 6.946 2.506 10.557-5.739 9.299-3.979 19.068-1.555 32.592.982 5.463 1.995 11.099 2.588 17.299 1.002 10.404-3.008 16.255-6.547 19.334z"/></g></g></g><path d="m167.129 46.583c-4.238 0-7.672-3.435-7.672-7.672v-.106c0-4.237 3.435-7.672 7.672-7.672s7.672 3.435 7.672 7.672v.106c0 4.237-3.434 7.672-7.672 7.672z" fill="#384848"/></g></svg>